# xmcd
#
# Track frame offsets:
# 150
# 14974
# 24385
# 40761
# 57365
# 73277
# 90352
# 105200
# 122531
# 134552
# 152813
#
# Disc length: 2227 seconds
#
#
# Revision: 0
# Processed by: cddbd v1.5PL3 Copyright (c) Steve Scherf et al.
# Submitted via: FreeRIP 2.53 
#
DISCID=8f08b10b
DTITLE=Kersh, David - If I Never Stop Loving You
DYEAR=1900
DGENRE=
TTITLE0=If I Never Stop Loving You
TTITLE1=The Need
TTITLE2=The Sudden Stop
TTITLE3=Wonderful Tonight
TTITLE4=Anything With Wheels
TTITLE5=Breathe In, Breathe Out
TTITLE6=Something To Think About
TTITLE7=It's Out Of My Hands
TTITLE8=Hello Walls
TTITLE9=As I Didn't Know
TTITLE10=The Faster I Go
EXTD=
EXTT0=
EXTT1=
EXTT2=
EXTT3=
EXTT4=
EXTT5=
EXTT6=
EXTT7=
EXTT8=
EXTT9=
EXTT10=
PLAYORDER=
